<?xml version="1.0" encoding="UTF-8" standalone="no"?>
<svg
   viewBox="0 0 159 110"
   version="1.1"
   id="svg15"
   sodipodi:docname="YouTube_Logo_2017.svg"
   width="159"
   height="110"
   inkscape:version="1.1.1 (3bf5ae0d25, 2021-09-20)"
   xmlns:inkscape="http://www.inkscape.org/namespaces/inkscape"
   xmlns:sodipodi="http://sodipodi.sourceforge.net/DTD/sodipodi-0.dtd"
   xmlns="http://www.w3.org/2000/svg"
   xmlns:svg="http://www.w3.org/2000/svg">
  <defs
     id="defs19" />
  <sodipodi:namedview
     id="namedview17"
     pagecolor="#505050"
     bordercolor="#ffffff"
     borderopacity="1"
     inkscape:pageshadow="0"
     inkscape:pageopacity="0"
     inkscape:pagecheckerboard="1"
     showgrid="false"
     inkscape:zoom="2"
     inkscape:cx="229.25"
     inkscape:cy="92.25"
     inkscape:window-width="1366"
     inkscape:window-height="699"
     inkscape:window-x="-8"
     inkscape:window-y="-8"
     inkscape:window-maximized="1"
     inkscape:current-layer="svg15"
     width="491px" />
  <path
     d="M 154.3,17.5 A 19.6,19.6 0 0 0 140.5,3.7 C 128.4,0.4 79.7,0.4 79.7,0.4 79.7,0.4 31,0.5 18.9,3.8 A 19.6,19.6 0 0 0 5.1,17.6 C 1.44,39.1 0.02,71.86 5.2,92.5 A 19.6,19.6 0 0 0 19,106.3 c 12.1,3.3 60.8,3.3 60.8,3.3 0,0 48.7,0 60.8,-3.3 a 19.6,19.6 0 0 0 13.8,-13.8 c 3.86,-21.53 5.05,-54.27 -0.1,-75 z"
     fill="#ff0000"
     id="path2" />
  <path
     fill="#ffffff"
     d="M 64.2,78.4 104.6,55 64.2,31.6 Z"
     id="path4" />
</svg>
